<?xml version="1.0" encoding="utf-8"?>
<!-- Generator: Adobe Illustrator 21.0.0, SVG Export Plug-In . SVG Version: 6.00 Build 0)  -->
<svg version="1.1" id="Слой_1" xmlns="http://www.w3.org/2000/svg" xmlns:xlink="http://www.w3.org/1999/xlink" x="0px" y="0px" viewBox="0 0 500 244.6" style="enable-background:new 0 0 500 244.6;" xml:space="preserve">
    <style type="text/css">
    .st0 {
        fill: #FFFFFF;
    }
    </style>
    <path class="st0" d="M475,244.6" />
    <path class="st0" d="M20.6,205.8" />
    <g>
        <path class="st0" d="M6.2,142.1v18.5h1.7l14.3-18.5h6.4l-15.8,19.2c6.9,0.9,9.6,5.1,11.7,10.8c1.6,4.3,2.8,8.1,4.6,11.8h-5.8
		c-1.5-2.9-2.7-6.6-3.8-9.9c-1.9-5.5-4.5-9.3-11.6-9.3H6.2v19.2H0.8v-41.8H6.2z" />
        <path class="st0" d="M61.6,168.7c0,11.1-7.7,15.9-14.9,15.9c-8.1,0-14.4-6-14.4-15.4c0-10,6.6-15.9,14.9-15.9
		C55.7,153.3,61.6,159.5,61.6,168.7z M37.8,169c0,6.6,3.7,11.5,9.1,11.5c5.2,0,9.1-4.9,9.1-11.7c0-5.1-2.5-11.5-9-11.5
		C40.6,157.4,37.8,163.3,37.8,169z" />
        <path class="st0" d="M74.1,153.9V166h14.2v-12.1h5.5v30h-5.5v-13.6H74.1v13.6h-5.5v-30H74.1z" />
        <path class="st0" d="M124.4,182.9c-1.4,0.7-4.6,1.7-8.6,1.7c-9.1,0-14.9-6.1-14.9-15.3c0-9.2,6.3-16,16.1-16c3.2,0,6.1,0.8,7.6,1.6
		l-1.2,4.2c-1.3-0.7-3.3-1.4-6.3-1.4c-6.9,0-10.6,5.1-10.6,11.3c0,6.9,4.5,11.2,10.4,11.2c3.1,0,5.1-0.7,6.7-1.4L124.4,182.9z" />
        <path class="st0" d="M152.4,153.9v4.3h-9.4v25.7h-5.5v-25.7h-9.4v-4.3H152.4z" />
        <path class="st0" d="M178.2,176.7c0,2.6,0.1,5.1,0.4,7.2h-4.9l-0.4-3.8h-0.2c-1.7,2.4-4.9,4.5-9.2,4.5c-6.1,0-9.2-4.3-9.2-8.6
		c0-7.3,6.4-11.2,18-11.2v-0.6c0-2.4-0.7-6.9-6.8-6.9c-2.9,0-5.8,0.8-7.9,2.2l-1.2-3.7c2.5-1.5,6.1-2.6,9.9-2.6
		c9.2,0,11.4,6.3,11.4,12.2V176.7z M173,168.6c-6-0.1-12.7,0.9-12.7,6.8c0,3.6,2.4,5.2,5.1,5.2c4,0,6.5-2.5,7.4-5
		c0.2-0.6,0.2-1.2,0.2-1.7V168.6z" />
        <path class="st0" d="M192.7,153.9V166h14.2v-12.1h5.5v30h-5.5v-13.6h-14.2v13.6h-5.5v-30H192.7z" />
        <path class="st0" d="M241.7,153.9v4.3h-9.4v25.7h-5.5v-25.7h-9.4v-4.3H241.7z" />
        <path class="st0" d="M251.9,153.9v12.6c0,4.7-0.1,7.8-0.4,12l0.2,0.1c1.9-3.7,2.9-5.8,4.9-9.2l9.4-15.5h6.4v30h-5.2v-12.7
		c0-4.9,0.1-7.4,0.4-12.3h-0.1c-2,3.9-3.2,6.3-5,9.4c-2.9,4.7-6.2,10.4-9.4,15.7h-6.3v-30H251.9z" />
        <path class="st0" d="M286.9,153.9V166h14.2v-12.1h5.5v30h-5.5v-13.6h-14.2v13.6h-5.5v-30H286.9z" />
        <path class="st0" d="M343,168.7c0,11.1-7.8,15.9-14.9,15.9c-8.1,0-14.4-6-14.4-15.4c0-10,6.6-15.9,14.9-15.9
		C337.1,153.3,343,159.5,343,168.7z M319.2,169c0,6.6,3.7,11.5,9.1,11.5c5.2,0,9.1-4.9,9.1-11.7c0-5.1-2.5-11.5-9-11.5
		C322,157.4,319.2,163.3,319.2,169z" />
        <path class="st0" d="M350,154.3c2.2-0.4,6.1-0.7,9.5-0.7c5.1,0,13.4,0.9,13.4,7.5c0,3.7-2.9,6.1-6.3,6.8v0.1c4.4,0.6,7.6,3,7.6,7.4
		c0,7.9-9.9,8.9-15.8,8.9c-3.3,0-6.9-0.2-8.5-0.4V154.3z M355.2,180.4c1.5,0.1,2.7,0.2,4.3,0.2c3.7,0,9.2-0.8,9.2-5.2
		c0-4.3-4.4-5.3-9.5-5.3h-4V180.4z M355.3,166.5h4.1c4,0,8.2-1.2,8.2-4.8c0-3-2.6-4.4-8.1-4.4c-1.9,0-3,0.1-4.2,0.2V166.5z" />
        <path class="st0" d="M403,182.9c-1.4,0.7-4.6,1.7-8.6,1.7c-9.1,0-14.9-6.1-14.9-15.3c0-9.2,6.3-16,16.1-16c3.2,0,6.1,0.8,7.6,1.6
		l-1.2,4.2c-1.3-0.7-3.3-1.4-6.3-1.4c-6.9,0-10.6,5.1-10.6,11.3c0,6.9,4.5,11.2,10.4,11.2c3.1,0,5.1-0.7,6.7-1.4L403,182.9z" />
        <path class="st0" d="M415.1,153.9v13h1.3l11.2-13h6.6l-13,13.5c4.8,0.6,7.7,3.8,10.1,9.2c0.8,2,1.8,4.9,3.2,7.3h-5.7
		c-0.8-1.3-1.8-3.7-2.8-6.1c-2-4.8-4.8-7.1-9.9-7.1h-1.1v13.2h-5.4v-30H415.1z" />
        <path class="st0" d="M444.8,153.9v12.6c0,4.7-0.1,7.8-0.4,12l0.2,0.1c1.9-3.7,2.9-5.8,4.9-9.2l9.4-15.5h6.4v30h-5.2v-12.7
		c0-4.9,0.1-7.4,0.4-12.3h-0.1c-2,3.9-3.2,6.3-5,9.4c-2.9,4.7-6.2,10.4-9.4,15.7h-6.3v-30H444.8z" />
        <path class="st0" d="M479.6,153.9v12.6c0,4.7-0.1,7.8-0.4,12l0.2,0.1c1.9-3.7,2.9-5.8,4.9-9.2l9.4-15.5h6.4v30h-5.2v-12.7
		c0-4.9,0.1-7.4,0.4-12.3h-0.1c-2,3.9-3.2,6.3-5,9.4c-2.9,4.7-6.2,10.4-9.4,15.7h-6.3v-30H479.6z M483.1,141.7
		c0.2,2.7,1.5,4.7,4,4.7c2.7,0,3.9-2,4.2-4.7h3.9c-0.3,5-3.5,7.7-8.2,7.7c-5.5,0-7.6-3.5-7.8-7.7H483.1z" />
    </g>
    <g>
        <path class="st0" d="M1.2,195.9h2.9l2.3,6.6c0.4,1,0.9,2.6,1.2,3.6h0.1c0.3-1,1-3,1.6-4.5l2.1-5.7h2.9l0.9,13.1H13l-0.3-6.2
		c-0.1-1.4-0.2-3.1-0.2-4.7h-0.1c-0.4,1.2-0.7,2.2-1.5,4.2l-2.5,6.6H6.7l-2.3-6.5c-0.4-1.2-1-3.1-1.3-4.3H2.9
		c-0.1,1.5-0.1,3.3-0.2,4.7L2.4,209H0.2L1.2,195.9z" />
        <path class="st0" d="M24.6,195.9v5.3h6.2v-5.3h2.4V209h-2.4V203h-6.2v5.9h-2.4v-13.1H24.6z" />
        <path class="st0" d="M52.9,202.3c0,4.8-3.4,6.9-6.5,6.9c-3.5,0-6.3-2.6-6.3-6.7c0-4.3,2.9-6.9,6.5-6.9
		C50.3,195.6,52.9,198.4,52.9,202.3z M42.5,202.5c0,2.9,1.6,5,3.9,5c2.3,0,4-2.1,4-5.1c0-2.2-1.1-5-3.9-5
		C43.7,197.4,42.5,200,42.5,202.5z" />
        <path class="st0" d="M67.8,195.9v1.9h-5.7V209h-2.3v-13.1H67.8z" />
        <path class="st0" d="M85.5,202.3c0,4.8-3.4,6.9-6.5,6.9c-3.5,0-6.3-2.6-6.3-6.7c0-4.3,2.9-6.9,6.5-6.9
		C83,195.6,85.5,198.4,85.5,202.3z M75.2,202.5c0,2.9,1.6,5,3.9,5c2.3,0,4-2.1,4-5.1c0-2.2-1.1-5-3.9-5
		C76.4,197.4,75.2,200,75.2,202.5z" />
        <path class="st0" d="M100.3,189.8l0,5.8c3.8,0.3,6.6,2.7,6.6,6.7c0,4.3-2.9,6.6-6.6,6.8l0,5.1h-2.2l0-5.1c-3.8-0.2-6.6-2.6-6.6-6.7
		c0-4.3,2.9-6.6,6.6-6.9l0-5.8H100.3z M98.2,197.3c-2.6,0.3-4.2,2.5-4.2,5.2c0,2.7,1.6,4.8,4.2,5.1V197.3z M100.3,207.6
		c2.6-0.4,4.2-2.5,4.2-5.2c0-2.7-1.6-4.8-4.2-5.1V207.6z" />
        <path class="st0" d="M114.2,195.9l2.8,7.7c0.3,0.9,0.6,1.9,0.9,2.7h0.1c0.2-0.8,0.5-1.8,0.8-2.7l2.6-7.7h2.5l-3.6,9.3
		c-1.7,4.5-2.9,6.7-4.5,8.2c-1.2,1-2.3,1.4-2.9,1.5l-0.6-2c0.6-0.2,1.4-0.6,2.1-1.2c0.6-0.5,1.4-1.4,2-2.6c0.1-0.2,0.2-0.4,0.2-0.6
		s-0.1-0.3-0.2-0.6l-4.8-12H114.2z" />
        <path class="st0" d="M132.4,195.9v5.3h6.2v-5.3h2.4V209h-2.4V203h-6.2v5.9H130v-13.1H132.4z" />
        <path class="st0" d="M151.2,195.9v5.7h0.6l4.9-5.7h2.9l-5.7,5.9c2.1,0.2,3.4,1.6,4.4,4c0.4,0.9,0.8,2.1,1.4,3.2h-2.5
		c-0.4-0.6-0.8-1.6-1.2-2.7c-0.9-2.1-2.1-3.1-4.3-3.1h-0.5v5.8h-2.3v-13.1H151.2z" />
        <path class="st0" d="M168.1,195.9v11.2h6v-11.2h2.3v11.3l1.3,0l-0.1,5.9h-1.9l-0.1-4.1h-10v-13.1H168.1z" />
        <path class="st0" d="M186.8,195.9v5.5c0,2.1-0.1,3.4-0.2,5.2l0.1,0c0.8-1.6,1.2-2.5,2.1-4l4.1-6.7h2.8V209h-2.3v-5.5
		c0-2.1,0.1-3.2,0.2-5.4h-0.1c-0.9,1.7-1.4,2.8-2.2,4.1c-1.2,2-2.7,4.5-4.1,6.8h-2.8v-13.1H186.8z" />
        <path class="st0" d="M215.4,202.3c0,4.8-3.4,6.9-6.5,6.9c-3.5,0-6.3-2.6-6.3-6.7c0-4.3,2.9-6.9,6.5-6.9
		C212.8,195.6,215.4,198.4,215.4,202.3z M205,202.5c0,2.9,1.6,5,3.9,5c2.3,0,4-2.1,4-5.1c0-2.2-1.1-5-3.9-5
		C206.3,197.4,205,200,205,202.5z" />
        <path class="st0" d="M224.7,195.9v5.3h6.2v-5.3h2.4V209h-2.4V203h-6.2v5.9h-2.4v-13.1H224.7z" />
        <path class="st0" d="M250.3,205.8c0,1.1,0.1,2.2,0.2,3.1h-2.1l-0.2-1.6h-0.1c-0.7,1-2.1,1.9-4,1.9c-2.6,0-4-1.9-4-3.8
		c0-3.2,2.8-4.9,7.9-4.9v-0.3c0-1.1-0.3-3-3-3c-1.2,0-2.5,0.4-3.4,1l-0.5-1.6c1.1-0.7,2.7-1.1,4.3-1.1c4,0,5,2.7,5,5.3V205.8z
		 M248,202.3c-2.6-0.1-5.5,0.4-5.5,2.9c0,1.6,1,2.3,2.2,2.3c1.7,0,2.8-1.1,3.2-2.2c0.1-0.3,0.1-0.5,0.1-0.8V202.3z" />
        <path class="st0" d="M268.1,195.9V209h-2.4v-11.2h-4.5v3.3c0,3.7-0.4,6.1-2.1,7.2c-0.6,0.5-1.4,0.8-2.6,0.8l-0.2-1.9
		c0.5-0.1,1-0.3,1.3-0.5c1.2-0.9,1.3-2.7,1.3-5.6v-5.2H268.1z" />
        <path class="st0" d="M278.3,195.9v4.4c0.6-0.1,1.5-0.1,2.2-0.1c2.9,0,6,0.9,6,4.4c0,1.3-0.5,2.3-1.4,3c-1.4,1.2-3.8,1.5-5.7,1.5
		c-1.3,0-2.5-0.1-3.5-0.2v-13H278.3z M278.2,207.3c0.5,0.1,1,0.1,1.8,0.1c1.8,0,4.1-0.6,4.1-2.8c0-2.3-2.4-2.8-4.2-2.8
		c-0.6,0-1.1,0.1-1.7,0.2V207.3z" />
        <path class="st0" d="M295.7,195.9v5.3h6.2v-5.3h2.4V209h-2.4V203h-6.2v5.9h-2.4v-13.1H295.7z" />
        <path class="st0" d="M314.4,195.9v4.4c0.5-0.1,1.2-0.2,2.1-0.2c2.8,0,5.7,1.2,5.7,4.4c0,1.4-0.5,2.3-1.4,3
		c-1.4,1.2-3.5,1.5-5.3,1.5c-1.3,0-2.5-0.1-3.5-0.2v-13H314.4z M314.4,207.3c0.5,0.1,1,0.1,1.6,0.1c1.8,0,3.8-0.7,3.8-2.8
		c0-2.1-1.9-2.8-3.7-2.8c-0.7,0-1.3,0.1-1.8,0.2V207.3z M326.2,195.9V209h-2.3v-13.1H326.2z" />
        <path class="st0" d="M336.3,195.9v5.5c0,2.1-0.1,3.4-0.2,5.2l0.1,0c0.8-1.6,1.2-2.5,2.1-4l4.1-6.7h2.8V209h-2.3v-5.5
		c0-2.1,0.1-3.2,0.2-5.4H343c-0.9,1.7-1.4,2.8-2.2,4.1c-1.2,2-2.7,4.5-4.1,6.8H334v-13.1H336.3z M337.8,190.6
		c0.1,1.2,0.6,2.1,1.7,2.1c1.2,0,1.7-0.9,1.8-2.1h1.7c-0.1,2.2-1.5,3.3-3.6,3.3c-2.4,0-3.3-1.5-3.4-3.3H337.8z" />
        <path class="st0" d="M365.1,195.9v5.7h0.6l4.9-5.7h2.9l-5.7,5.9c2.1,0.2,3.4,1.6,4.4,4c0.4,0.9,0.8,2.1,1.4,3.2h-2.5
		c-0.4-0.6-0.8-1.6-1.2-2.7c-0.9-2.1-2.1-3.1-4.3-3.1h-0.5v5.8h-2.3v-13.1H365.1z" />
        <path class="st0" d="M391.4,202.3c0,4.8-3.4,6.9-6.5,6.9c-3.5,0-6.3-2.6-6.3-6.7c0-4.3,2.9-6.9,6.5-6.9
		C388.8,195.6,391.4,198.4,391.4,202.3z M381,202.5c0,2.9,1.6,5,3.9,5c2.3,0,4-2.1,4-5.1c0-2.2-1.1-5-3.9-5
		C382.2,197.4,381,200,381,202.5z" />
        <path class="st0" d="M398.5,195.9h2.9l2.3,6.6c0.4,1,0.9,2.6,1.2,3.6h0.1c0.3-1,1-3,1.6-4.5l2.1-5.7h2.9l0.9,13.1h-2.3l-0.3-6.2
		c-0.1-1.4-0.2-3.1-0.2-4.7h-0.1c-0.4,1.2-0.7,2.2-1.5,4.2l-2.5,6.6H404l-2.3-6.5c-0.4-1.2-1-3.1-1.3-4.3h-0.1
		c-0.1,1.5-0.1,3.3-0.2,4.7l-0.4,6.2h-2.2L398.5,195.9z" />
        <path class="st0" d="M430.4,195.9V209H428v-11.2h-6.1V209h-2.4v-13.1H430.4z" />
        <path class="st0" d="M448.1,195.9V209h-2.4v-11.2h-4.5v3.3c0,3.7-0.4,6.1-2.1,7.2c-0.6,0.5-1.4,0.8-2.6,0.8l-0.2-1.9
		c0.5-0.1,1-0.3,1.3-0.5c1.2-0.9,1.3-2.7,1.3-5.6v-5.2H448.1z" />
        <path class="st0" d="M457.3,202.9c0.1,3.2,2.1,4.5,4.5,4.5c1.7,0,2.8-0.3,3.6-0.7l0.4,1.7c-0.8,0.4-2.3,0.8-4.4,0.8
		c-4,0-6.4-2.7-6.4-6.6c0-3.9,2.3-7,6.1-7c4.3,0,5.4,3.7,5.4,6.1c0,0.5,0,0.8-0.1,1.1H457.3z M464.3,201.2c0-1.5-0.6-3.8-3.3-3.8
		c-2.4,0-3.5,2.2-3.6,3.8H464.3z" />
        <path class="st0" d="M475.9,195.9v5.7h0.6l4.9-5.7h2.9l-5.7,5.9c2.1,0.2,3.4,1.6,4.4,4c0.4,0.9,0.8,2.1,1.4,3.2h-2.5
		c-0.4-0.6-0.8-1.6-1.2-2.7c-0.9-2.1-2.1-3.1-4.3-3.1h-0.5v5.8h-2.3v-13.1H475.9z" />
        <path class="st0" d="M499.6,208.5c-0.6,0.3-2,0.8-3.8,0.8c-3.9,0-6.5-2.7-6.5-6.7c0-4,2.8-7,7-7c1.4,0,2.6,0.4,3.3,0.7l-0.5,1.8
		c-0.6-0.3-1.5-0.6-2.8-0.6c-3,0-4.6,2.2-4.6,4.9c0,3,1.9,4.9,4.5,4.9c1.3,0,2.2-0.3,2.9-0.6L499.6,208.5z" />
    </g>
    <polyline class="st0" points="149,48.9 500,114.5 149,82.1 0,122.3 " />
    <polyline class="st0" points="149,0 500,98.7 149,34.1 0,114.5 " />
    <polyline class="st0" points="149,97.7 500,130.2 149,127 0,129.4 " />
</svg>