<?xml version="1.0" standalone="no"?>
<!DOCTYPE svg PUBLIC "-//W3C//DTD SVG 20010904//EN"
 "http://www.w3.org/TR/2001/REC-SVG-20010904/DTD/svg10.dtd">
<svg version="1.0" xmlns="http://www.w3.org/2000/svg"
 width="598.000000pt" height="598.000000pt" viewBox="0 0 598.000000 598.000000"
 preserveAspectRatio="xMidYMid meet">
<metadata>
Created by potrace 1.11, written by Peter Selinger 2001-2013
</metadata>
<g transform="translate(0.000000,598.000000) scale(0.100000,-0.100000)"
fill="#000000" stroke="none">
<path d="M0 2990 l0 -2990 2990 0 2990 0 0 2990 0 2990 -2990 0 -2990 0 0
-2990z m3717 163 c953 -268 1731 -489 1729 -490 -2 -2 -776 139 -1721 312
-945 174 -1725 317 -1734 318 -9 0 -338 -173 -731 -385 -784 -422 -768 -414
-758 -403 12 13 1473 1135 1478 1135 3 0 784 -219 1737 -487z m2 -325 c954
-178 1723 -324 1710 -326 -13 -1 -795 69 -1737 156 l-1713 158 -732 -197
c-403 -109 -735 -197 -739 -196 -8 2 1450 724 1467 727 6 0 790 -144 1744
-322z m9 -325 l1712 -158 -237 -3 c-131 -1 -920 4 -1753 12 -1409 13 -1794 12
-2738 -7 -117 -3 -211 -3 -208 0 8 9 1431 311 1471 312 22 1 811 -69 1753
-156z"/>
</g>
</svg>
